<svg width="100" height="32" viewBox="0 0 100 32" fill="none" xmlns="http://www.w3.org/2000/svg">
<path fill-rule="evenodd" clip-rule="evenodd" d="M45.6265 22.596H38.4719C38.3981 22.596 38.3386 22.5365 38.3386 22.4628V17.4609C38.3386 17.3871 38.3981 17.3276 38.4719 17.3276H43.5001C44.1074 17.3276 44.6136 16.8468 44.6136 16.24C44.6136 15.6074 44.1074 15.1261 43.5001 15.1261H38.4719C38.3981 15.1261 38.3386 15.0665 38.3386 14.9928V9.69657C38.3386 9.62286 38.3977 9.56331 38.4719 9.56331H45.3233C45.9306 9.56331 46.4363 9.08249 46.4363 8.44987C46.4363 7.84214 45.9306 7.36133 45.3233 7.36133H37.1749C36.5418 7.36133 35.9848 7.91829 35.9848 8.5763V23.583C35.9848 24.2406 36.5418 24.7975 37.1749 24.7975H45.6265C46.2337 24.7975 46.7399 24.3162 46.7399 23.7095C46.7399 23.0769 46.2337 22.596 45.6265 22.596Z" fill="white"/>
<path fill-rule="evenodd" clip-rule="evenodd" d="M55.3349 12.7266C54.0438 12.7266 52.349 13.3333 51.6402 14.7504V14.0172C51.6402 13.3841 51.134 12.8525 50.476 12.8525C49.8434 12.8525 49.3376 13.3841 49.3376 14.0172V23.7594C49.3376 24.392 49.8434 24.9241 50.4765 24.9241C51.134 24.9241 51.6402 24.392 51.6402 23.7594V18.4197C51.6402 15.9151 53.3101 14.9788 54.98 14.9788C56.6001 14.9788 57.5866 16.1425 57.5866 18.1166V23.7594C57.5866 24.392 58.0928 24.9241 58.7255 24.9241C59.384 24.9241 59.8897 24.392 59.8897 23.7594V17.9647C59.8897 14.6493 58.2705 12.7266 55.3349 12.7266Z" fill="white"/>
<path fill-rule="evenodd" clip-rule="evenodd" d="M72.4149 12.9033C71.8076 12.7266 71.2507 13.0302 70.9978 13.6628L67.8313 21.7732C67.7873 21.8859 67.6277 21.8864 67.5833 21.7737L64.3928 13.6628C64.14 13.0302 63.583 12.7266 62.9758 12.9033C62.3432 13.0551 62.0391 13.7892 62.2416 14.3462L66.1892 23.8355C66.4933 24.5189 66.9741 24.9241 67.6575 24.9241H67.7839C68.4668 24.9241 68.9227 24.5189 69.201 23.8355L73.1231 14.3462C73.3257 13.7892 73.0475 13.0551 72.4149 12.9033Z" fill="white"/>
<path fill-rule="evenodd" clip-rule="evenodd" d="M80.8571 22.8236C78.7313 22.8236 76.9598 21.2548 76.9598 18.8507C76.9598 16.472 78.7313 14.9788 80.8571 14.9788C82.9824 14.9788 84.7534 16.472 84.7534 18.8507C84.7534 21.2548 82.9824 22.8236 80.8571 22.8236ZM80.8571 12.7266C77.4909 12.7266 74.6822 15.1048 74.6822 18.8507C74.6822 22.5962 77.4909 25.0505 80.8571 25.0505C84.2228 25.0505 87.0569 22.5962 87.0569 18.8507C87.0569 15.1048 84.2228 12.7266 80.8571 12.7266Z" fill="white"/>
<mask id="mask0" mask-type="alpha" maskUnits="userSpaceOnUse" x="87" y="12" width="13" height="19">
<path fill-rule="evenodd" clip-rule="evenodd" d="M87.8254 12.8491H99.4127V30.694H87.8254V12.8491Z" fill="white"/>
</mask>
<g mask="url(#mask0)">
<path fill-rule="evenodd" clip-rule="evenodd" d="M98.7079 12.9283C98.1261 12.7009 97.4422 12.9791 97.2147 13.561L94.0482 21.2349C94.0028 21.3448 93.8471 21.3448 93.8017 21.2354L90.661 13.6376C90.4072 13.005 89.8258 12.7267 89.1932 12.9034C88.5859 13.0806 88.3072 13.8143 88.5093 14.3962L92.6384 24.3917C92.6526 24.4249 92.6521 24.4615 92.6379 24.4942L92.0024 26.0118C91.2941 27.6822 90.7869 28.6185 89.2688 28.6185H88.9149C88.358 28.5936 87.8523 29.0236 87.8264 29.6055C87.801 30.162 88.2564 30.6179 88.8129 30.6682C89.0916 30.694 89.2688 30.694 89.3201 30.694C91.7998 30.694 92.9133 29.5801 94.1019 26.8978L99.3156 14.422C99.5685 13.8397 99.3156 13.1568 98.7079 12.9283Z" fill="white"/>
</g>
<path fill-rule="evenodd" clip-rule="evenodd" d="M9.50303 9.56331H16.5678C17.1755 9.56331 17.669 9.07029 17.669 8.46207C17.669 7.85434 17.1755 7.36084 16.5678 7.36084H9.50303C8.8953 7.36084 8.40228 7.85434 8.40228 8.46207C8.40228 9.07029 8.8953 9.56331 9.50303 9.56331Z" fill="white"/>
<mask id="mask1" mask-type="alpha" maskUnits="userSpaceOnUse" x="0" y="0" width="27" height="32">
<path fill-rule="evenodd" clip-rule="evenodd" d="M0 0.488281H26.3095V31.6785H0V0.488281Z" fill="white"/>
</mask>
<g mask="url(#mask1)">
<path fill-rule="evenodd" clip-rule="evenodd" d="M24.1071 28.2412C24.1071 28.9232 23.554 29.4767 22.8716 29.4767H3.43794C2.75553 29.4767 2.20247 28.9232 2.20247 28.2412V3.92573C2.20247 3.24381 2.75553 2.69026 3.43794 2.69026H22.8716C23.554 2.69026 24.1071 3.24381 24.1071 3.92573V28.2412ZM23.5154 0.488281H2.79409C1.25109 0.488281 0 1.73937 0 3.28237V28.8846C0 30.4276 1.25109 31.6787 2.79409 31.6787H23.5154C25.0584 31.6787 26.3095 30.4276 26.3095 28.8846V3.28237C26.3095 1.73937 25.0584 0.488281 23.5154 0.488281Z" fill="white"/>
</g>
<path fill-rule="evenodd" clip-rule="evenodd" d="M16.7774 22.6035H10.6044V19.7699H14.1078C14.7155 19.7699 15.2085 19.2773 15.2085 18.6691C15.2085 18.0609 14.7155 17.5679 14.1078 17.5679H10.6044V14.929H16.5104C17.1186 14.929 17.6116 14.436 17.6116 13.8278C17.6116 13.2196 17.1186 12.7271 16.5104 12.7271H9.50321C8.89548 12.7271 8.40247 13.2196 8.40247 13.8278V23.7047C8.40247 24.3125 8.89548 24.806 9.50321 24.806H16.7774C17.3856 24.806 17.8786 24.3125 17.8786 23.7047C17.8786 23.0965 17.3856 22.6035 16.7774 22.6035Z" fill="white"/>
</svg>
